<?xml version="1.0" standalone="no"?>
<svg xmlns="http://www.w3.org/2000/svg" width="1000" height="990" viewBox="0 0 1000 990"><defs><linearGradient id="frame-background-color" gradientUnits="userSpaceOnUse" x1="0" y1="495" x2="1000" y2="495"><stop offset="0%" stop-color="#a9a2a2"/><stop offset="100%" stop-color="#ffffff"/></linearGradient><clipPath id="clip-path-dot-color"><rect x="252" y="286" width="15" height="15" transform="rotate(0,259.5,293.5)"/><rect x="252" y="301" width="15" height="15" transform="rotate(0,259.5,308.5)"/><rect x="252" y="316" width="15" height="15" transform="rotate(0,259.5,323.5)"/><rect x="252" y="346" width="15" height="15" transform="rotate(0,259.5,353.5)"/><rect x="252" y="361" width="15" height="15" transform="rotate(0,259.5,368.5)"/><rect x="252" y="406" width="15" height="15" transform="rotate(0,259.5,413.5)"/><rect x="252" y="421" width="15" height="15" transform="rotate(0,259.5,428.5)"/><rect x="252" y="466" width="15" height="15" transform="rotate(0,259.5,473.5)"/><rect x="252" y="511" width="15" height="15" transform="rotate(0,259.5,518.5)"/><rect x="252" y="526" width="15" height="15" transform="rotate(0,259.5,533.5)"/><rect x="267" y="286" width="15" height="15" transform="rotate(0,274.5,293.5)"/><rect x="267" y="301" width="15" height="15" transform="rotate(0,274.5,308.5)"/><rect x="267" y="316" width="15" height="15" transform="rotate(0,274.5,323.5)"/><rect x="267" y="346" width="15" height="15" transform="rotate(0,274.5,353.5)"/><rect x="267" y="361" width="15" height="15" transform="rotate(0,274.5,368.5)"/><rect x="267" y="391" width="15" height="15" transform="rotate(0,274.5,398.5)"/><rect x="267" y="406" width="15" height="15" transform="rotate(0,274.5,413.5)"/><rect x="267" y="451" width="15" height="15" transform="rotate(0,274.5,458.5)"/><rect x="267" y="496" width="15" height="15" transform="rotate(0,274.5,503.5)"/><rect x="267" y="526" width="15" height="15" transform="rotate(0,274.5,533.5)"/><rect x="282" y="286" width="15" height="15" transform="rotate(0,289.5,293.5)"/><rect x="282" y="316" width="15" height="15" transform="rotate(0,289.5,323.5)"/><rect x="282" y="331" width="15" height="15" transform="rotate(0,289.5,338.5)"/><rect x="282" y="346" width="15" height="15" transform="rotate(0,289.5,353.5)"/><rect x="282" y="361" width="15" height="15" transform="rotate(0,289.5,368.5)"/><rect x="282" y="376" width="15" height="15" transform="rotate(0,289.5,383.5)"/><rect x="282" y="391" width="15" height="15" transform="rotate(0,289.5,398.5)"/><rect x="282" y="421" width="15" height="15" transform="rotate(0,289.5,428.5)"/><rect x="282" y="436" width="15" height="15" transform="rotate(0,289.5,443.5)"/><rect x="282" y="466" width="15" height="15" transform="rotate(0,289.5,473.5)"/><rect x="282" y="481" width="15" height="15" transform="rotate(0,289.5,488.5)"/><rect x="282" y="496" width="15" height="15" transform="rotate(0,289.5,503.5)"/><rect x="282" y="511" width="15" height="15" transform="rotate(0,289.5,518.5)"/><rect x="282" y="526" width="15" height="15" transform="rotate(0,289.5,533.5)"/><rect x="297" y="301" width="15" height="15" transform="rotate(0,304.5,308.5)"/><rect x="297" y="346" width="15" height="15" transform="rotate(0,304.5,353.5)"/><rect x="297" y="361" width="15" height="15" transform="rotate(0,304.5,368.5)"/><rect x="297" y="391" width="15" height="15" transform="rotate(0,304.5,398.5)"/><rect x="297" y="511" width="15" height="15" transform="rotate(0,304.5,518.5)"/><rect x="312" y="301" width="15" height="15" transform="rotate(0,319.5,308.5)"/><rect x="312" y="346" width="15" height="15" transform="rotate(0,319.5,353.5)"/><rect x="312" y="361" width="15" height="15" transform="rotate(0,319.5,368.5)"/><rect x="312" y="376" width="15" height="15" transform="rotate(0,319.5,383.5)"/><rect x="312" y="421" width="15" height="15" transform="rotate(0,319.5,428.5)"/><rect x="312" y="451" width="15" height="15" transform="rotate(0,319.5,458.5)"/><rect x="312" y="526" width="15" height="15" transform="rotate(0,319.5,533.5)"/><rect x="327" y="286" width="15" height="15" transform="rotate(0,334.5,293.5)"/><rect x="327" y="346" width="15" height="15" transform="rotate(0,334.5,353.5)"/><rect x="327" y="406" width="15" height="15" transform="rotate(0,334.5,413.5)"/><rect x="327" y="421" width="15" height="15" transform="rotate(0,334.5,428.5)"/><rect x="327" y="451" width="15" height="15" transform="rotate(0,334.5,458.5)"/><rect x="327" y="496" width="15" height="15" transform="rotate(0,334.5,503.5)"/><rect x="342" y="286" width="15" height="15" transform="rotate(0,349.5,293.5)"/><rect x="342" y="316" width="15" height="15" transform="rotate(0,349.5,323.5)"/><rect x="342" y="346" width="15" height="15" transform="rotate(0,349.5,353.5)"/><rect x="342" y="376" width="15" height="15" transform="rotate(0,349.5,383.5)"/><rect x="342" y="406" width="15" height="15" transform="rotate(0,349.5,413.5)"/><rect x="342" y="436" width="15" height="15" transform="rotate(0,349.5,443.5)"/><rect x="342" y="466" width="15" height="15" transform="rotate(0,349.5,473.5)"/><rect x="342" y="496" width="15" height="15" transform="rotate(0,349.5,503.5)"/><rect x="342" y="526" width="15" height="15" transform="rotate(0,349.5,533.5)"/><rect x="357" y="286" width="15" height="15" transform="rotate(0,364.5,293.5)"/><rect x="357" y="316" width="15" height="15" transform="rotate(0,364.5,323.5)"/><rect x="357" y="361" width="15" height="15" transform="rotate(0,364.5,368.5)"/><rect x="357" y="391" width="15" height="15" transform="rotate(0,364.5,398.5)"/><rect x="357" y="421" width="15" height="15" transform="rotate(0,364.5,428.5)"/><rect x="357" y="436" width="15" height="15" transform="rotate(0,364.5,443.5)"/><rect x="357" y="481" width="15" height="15" transform="rotate(0,364.5,488.5)"/><rect x="357" y="496" width="15" height="15" transform="rotate(0,364.5,503.5)"/><rect x="357" y="526" width="15" height="15" transform="rotate(0,364.5,533.5)"/><rect x="372" y="196" width="15" height="15" transform="rotate(0,379.5,203.5)"/><rect x="372" y="211" width="15" height="15" transform="rotate(0,379.5,218.5)"/><rect x="372" y="226" width="15" height="15" transform="rotate(0,379.5,233.5)"/><rect x="372" y="256" width="15" height="15" transform="rotate(0,379.5,263.5)"/><rect x="372" y="286" width="15" height="15" transform="rotate(0,379.5,293.5)"/><rect x="372" y="361" width="15" height="15" transform="rotate(0,379.5,368.5)"/><rect x="372" y="436" width="15" height="15" transform="rotate(0,379.5,443.5)"/><rect x="372" y="451" width="15" height="15" transform="rotate(0,379.5,458.5)"/><rect x="372" y="466" width="15" height="15" transform="rotate(0,379.5,473.5)"/><rect x="372" y="526" width="15" height="15" transform="rotate(0,379.5,533.5)"/><rect x="372" y="541" width="15" height="15" transform="rotate(0,379.5,548.5)"/><rect x="372" y="556" width="15" height="15" transform="rotate(0,379.5,563.5)"/><rect x="372" y="571" width="15" height="15" transform="rotate(0,379.5,578.5)"/><rect x="372" y="616" width="15" height="15" transform="rotate(0,379.5,623.5)"/><rect x="372" y="631" width="15" height="15" transform="rotate(0,379.5,638.5)"/><rect x="372" y="646" width="15" height="15" transform="rotate(0,379.5,653.5)"/><rect x="387" y="166" width="15" height="15" transform="rotate(0,394.5,173.5)"/><rect x="387" y="196" width="15" height="15" transform="rotate(0,394.5,203.5)"/><rect x="387" y="211" width="15" height="15" transform="rotate(0,394.5,218.5)"/><rect x="387" y="226" width="15" height="15" transform="rotate(0,394.5,233.5)"/><rect x="387" y="241" width="15" height="15" transform="rotate(0,394.5,248.5)"/><rect x="387" y="301" width="15" height="15" transform="rotate(0,394.5,308.5)"/><rect x="387" y="361" width="15" height="15" transform="rotate(0,394.5,368.5)"/><rect x="387" y="376" width="15" height="15" transform="rotate(0,394.5,383.5)"/><rect x="387" y="391" width="15" height="15" transform="rotate(0,394.5,398.5)"/><rect x="387" y="406" width="15" height="15" transform="rotate(0,394.5,413.5)"/><rect x="387" y="436" width="15" height="15" transform="rotate(0,394.5,443.5)"/><rect x="387" y="451" width="15" height="15" transform="rotate(0,394.5,458.5)"/><rect x="387" y="466" width="15" height="15" transform="rotate(0,394.5,473.5)"/><rect x="387" y="496" width="15" height="15" transform="rotate(0,394.5,503.5)"/><rect x="387" y="511" width="15" height="15" transform="rotate(0,394.5,518.5)"/><rect x="387" y="541" width="15" height="15" transform="rotate(0,394.5,548.5)"/><rect x="387" y="556" width="15" height="15" transform="rotate(0,394.5,563.5)"/><rect x="387" y="631" width="15" height="15" transform="rotate(0,394.5,638.5)"/><rect x="387" y="646" width="15" height="15" transform="rotate(0,394.5,653.5)"/><rect x="402" y="181" width="15" height="15" transform="rotate(0,409.5,188.5)"/><rect x="402" y="211" width="15" height="15" transform="rotate(0,409.5,218.5)"/><rect x="402" y="256" width="15" height="15" transform="rotate(0,409.5,263.5)"/><rect x="402" y="271" width="15" height="15" transform="rotate(0,409.5,278.5)"/><rect x="402" y="286" width="15" height="15" transform="rotate(0,409.5,293.5)"/><rect x="402" y="331" width="15" height="15" transform="rotate(0,409.5,338.5)"/><rect x="402" y="346" width="15" height="15" transform="rotate(0,409.5,353.5)"/><rect x="402" y="361" width="15" height="15" transform="rotate(0,409.5,368.5)"/><rect x="402" y="376" width="15" height="15" transform="rotate(0,409.5,383.5)"/><rect x="402" y="391" width="15" height="15" transform="rotate(0,409.5,398.5)"/><rect x="402" y="406" width="15" height="15" transform="rotate(0,409.5,413.5)"/><rect x="402" y="421" width="15" height="15" transform="rotate(0,409.5,428.5)"/><rect x="402" y="436" width="15" height="15" transform="rotate(0,409.5,443.5)"/><rect x="402" y="466" width="15" height="15" transform="rotate(0,409.5,473.5)"/><rect x="402" y="496" width="15" height="15" transform="rotate(0,409.5,503.5)"/><rect x="402" y="556" width="15" height="15" transform="rotate(0,409.5,563.5)"/><rect x="402" y="571" width="15" height="15" transform="rotate(0,409.5,578.5)"/><rect x="402" y="601" width="15" height="15" transform="rotate(0,409.5,608.5)"/><rect x="402" y="616" width="15" height="15" transform="rotate(0,409.5,623.5)"/><rect x="402" y="631" width="15" height="15" transform="rotate(0,409.5,638.5)"/><rect x="417" y="166" width="15" height="15" transform="rotate(0,424.5,173.5)"/><rect x="417" y="181" width="15" height="15" transform="rotate(0,424.5,188.5)"/><rect x="417" y="211" width="15" height="15" transform="rotate(0,424.5,218.5)"/><rect x="417" y="271" width="15" height="15" transform="rotate(0,424.5,278.5)"/><rect x="417" y="301" width="15" height="15" transform="rotate(0,424.5,308.5)"/><rect x="417" y="346" width="15" height="15" transform="rotate(0,424.5,353.5)"/><rect x="417" y="406" width="15" height="15" transform="rotate(0,424.5,413.5)"/><rect x="417" y="526" width="15" height="15" transform="rotate(0,424.5,533.5)"/><rect x="417" y="541" width="15" height="15" transform="rotate(0,424.5,548.5)"/><rect x="417" y="601" width="15" height="15" transform="rotate(0,424.5,608.5)"/><rect x="417" y="616" width="15" height="15" transform="rotate(0,424.5,623.5)"/><rect x="417" y="631" width="15" height="15" transform="rotate(0,424.5,638.5)"/><rect x="432" y="181" width="15" height="15" transform="rotate(0,439.5,188.5)"/><rect x="432" y="211" width="15" height="15" transform="rotate(0,439.5,218.5)"/><rect x="432" y="226" width="15" height="15" transform="rotate(0,439.5,233.5)"/><rect x="432" y="256" width="15" height="15" transform="rotate(0,439.5,263.5)"/><rect x="432" y="271" width="15" height="15" transform="rotate(0,439.5,278.5)"/><rect x="432" y="316" width="15" height="15" transform="rotate(0,439.5,323.5)"/><rect x="432" y="331" width="15" height="15" transform="rotate(0,439.5,338.5)"/><rect x="432" y="346" width="15" height="15" transform="rotate(0,439.5,353.5)"/><rect x="432" y="361" width="15" height="15" transform="rotate(0,439.5,368.5)"/><rect x="432" y="376" width="15" height="15" transform="rotate(0,439.5,383.5)"/><rect x="432" y="391" width="15" height="15" transform="rotate(0,439.5,398.5)"/><rect x="432" y="406" width="15" height="15" transform="rotate(0,439.5,413.5)"/><rect x="432" y="421" width="15" height="15" transform="rotate(0,439.5,428.5)"/><rect x="432" y="436" width="15" height="15" transform="rotate(0,439.5,443.5)"/><rect x="432" y="451" width="15" height="15" transform="rotate(0,439.5,458.5)"/><rect x="432" y="466" width="15" height="15" transform="rotate(0,439.5,473.5)"/><rect x="432" y="481" width="15" height="15" transform="rotate(0,439.5,488.5)"/><rect x="432" y="496" width="15" height="15" transform="rotate(0,439.5,503.5)"/><rect x="432" y="526" width="15" height="15" transform="rotate(0,439.5,533.5)"/><rect x="432" y="571" width="15" height="15" transform="rotate(0,439.5,578.5)"/><rect x="447" y="166" width="15" height="15" transform="rotate(0,454.5,173.5)"/><rect x="447" y="181" width="15" height="15" transform="rotate(0,454.5,188.5)"/><rect x="447" y="211" width="15" height="15" transform="rotate(0,454.5,218.5)"/><rect x="447" y="241" width="15" height="15" transform="rotate(0,454.5,248.5)"/><rect x="447" y="271" width="15" height="15" transform="rotate(0,454.5,278.5)"/><rect x="447" y="301" width="15" height="15" transform="rotate(0,454.5,308.5)"/><rect x="447" y="331" width="15" height="15" transform="rotate(0,454.5,338.5)"/><rect x="447" y="346" width="15" height="15" transform="rotate(0,454.5,353.5)"/><rect x="447" y="376" width="15" height="15" transform="rotate(0,454.5,383.5)"/><rect x="447" y="391" width="15" height="15" transform="rotate(0,454.5,398.5)"/><rect x="447" y="421" width="15" height="15" transform="rotate(0,454.5,428.5)"/><rect x="447" y="451" width="15" height="15" transform="rotate(0,454.5,458.5)"/><rect x="447" y="511" width="15" height="15" transform="rotate(0,454.5,518.5)"/><rect x="447" y="556" width="15" height="15" transform="rotate(0,454.5,563.5)"/><rect x="447" y="586" width="15" height="15" transform="rotate(0,454.5,593.5)"/><rect x="447" y="601" width="15" height="15" transform="rotate(0,454.5,608.5)"/><rect x="447" y="646" width="15" height="15" transform="rotate(0,454.5,653.5)"/><rect x="462" y="166" width="15" height="15" transform="rotate(0,469.5,173.5)"/><rect x="462" y="181" width="15" height="15" transform="rotate(0,469.5,188.5)"/><rect x="462" y="256" width="15" height="15" transform="rotate(0,469.5,263.5)"/><rect x="462" y="271" width="15" height="15" transform="rotate(0,469.5,278.5)"/><rect x="462" y="286" width="15" height="15" transform="rotate(0,469.5,293.5)"/><rect x="462" y="301" width="15" height="15" transform="rotate(0,469.5,308.5)"/><rect x="462" y="331" width="15" height="15" transform="rotate(0,469.5,338.5)"/><rect x="462" y="346" width="15" height="15" transform="rotate(0,469.5,353.5)"/><rect x="462" y="361" width="15" height="15" transform="rotate(0,469.5,368.5)"/><rect x="462" y="376" width="15" height="15" transform="rotate(0,469.5,383.5)"/><rect x="462" y="391" width="15" height="15" transform="rotate(0,469.5,398.5)"/><rect x="462" y="406" width="15" height="15" transform="rotate(0,469.5,413.5)"/><rect x="462" y="451" width="15" height="15" transform="rotate(0,469.5,458.5)"/><rect x="462" y="466" width="15" height="15" transform="rotate(0,469.5,473.5)"/><rect x="462" y="496" width="15" height="15" transform="rotate(0,469.5,503.5)"/><rect x="462" y="571" width="15" height="15" transform="rotate(0,469.5,578.5)"/><rect x="462" y="586" width="15" height="15" transform="rotate(0,469.5,593.5)"/><rect x="462" y="631" width="15" height="15" transform="rotate(0,469.5,638.5)"/><rect x="477" y="181" width="15" height="15" transform="rotate(0,484.5,188.5)"/><rect x="477" y="196" width="15" height="15" transform="rotate(0,484.5,203.5)"/><rect x="477" y="211" width="15" height="15" transform="rotate(0,484.5,218.5)"/><rect x="477" y="241" width="15" height="15" transform="rotate(0,484.5,248.5)"/><rect x="477" y="271" width="15" height="15" transform="rotate(0,484.5,278.5)"/><rect x="477" y="301" width="15" height="15" transform="rotate(0,484.5,308.5)"/><rect x="477" y="316" width="15" height="15" transform="rotate(0,484.5,323.5)"/><rect x="477" y="331" width="15" height="15" transform="rotate(0,484.5,338.5)"/><rect x="477" y="346" width="15" height="15" transform="rotate(0,484.5,353.5)"/><rect x="477" y="361" width="15" height="15" transform="rotate(0,484.5,368.5)"/><rect x="477" y="376" width="15" height="15" transform="rotate(0,484.5,383.5)"/><rect x="477" y="391" width="15" height="15" transform="rotate(0,484.5,398.5)"/><rect x="477" y="436" width="15" height="15" transform="rotate(0,484.5,443.5)"/><rect x="477" y="481" width="15" height="15" transform="rotate(0,484.5,488.5)"/><rect x="477" y="496" width="15" height="15" transform="rotate(0,484.5,503.5)"/><rect x="477" y="526" width="15" height="15" transform="rotate(0,484.5,533.5)"/><rect x="477" y="586" width="15" height="15" transform="rotate(0,484.5,593.5)"/><rect x="477" y="601" width="15" height="15" transform="rotate(0,484.5,608.5)"/><rect x="477" y="646" width="15" height="15" transform="rotate(0,484.5,653.5)"/><rect x="492" y="196" width="15" height="15" transform="rotate(0,499.5,203.5)"/><rect x="492" y="256" width="15" height="15" transform="rotate(0,499.5,263.5)"/><rect x="492" y="271" width="15" height="15" transform="rotate(0,499.5,278.5)"/><rect x="492" y="286" width="15" height="15" transform="rotate(0,499.5,293.5)"/><rect x="492" y="301" width="15" height="15" transform="rotate(0,499.5,308.5)"/><rect x="492" y="346" width="15" height="15" transform="rotate(0,499.5,353.5)"/><rect x="492" y="361" width="15" height="15" transform="rotate(0,499.5,368.5)"/><rect x="492" y="376" width="15" height="15" transform="rotate(0,499.5,383.5)"/><rect x="492" y="391" width="15" height="15" transform="rotate(0,499.5,398.5)"/><rect x="492" y="406" width="15" height="15" transform="rotate(0,499.5,413.5)"/><rect x="492" y="421" width="15" height="15" transform="rotate(0,499.5,428.5)"/><rect x="492" y="436" width="15" height="15" transform="rotate(0,499.5,443.5)"/><rect x="492" y="451" width="15" height="15" transform="rotate(0,499.5,458.5)"/><rect x="492" y="511" width="15" height="15" transform="rotate(0,499.5,518.5)"/><rect x="492" y="541" width="15" height="15" transform="rotate(0,499.5,548.5)"/><rect x="492" y="586" width="15" height="15" transform="rotate(0,499.5,593.5)"/><rect x="492" y="616" width="15" height="15" transform="rotate(0,499.5,623.5)"/><rect x="492" y="646" width="15" height="15" transform="rotate(0,499.5,653.5)"/><rect x="507" y="181" width="15" height="15" transform="rotate(0,514.5,188.5)"/><rect x="507" y="211" width="15" height="15" transform="rotate(0,514.5,218.5)"/><rect x="507" y="301" width="15" height="15" transform="rotate(0,514.5,308.5)"/><rect x="507" y="316" width="15" height="15" transform="rotate(0,514.5,323.5)"/><rect x="507" y="346" width="15" height="15" transform="rotate(0,514.5,353.5)"/><rect x="507" y="361" width="15" height="15" transform="rotate(0,514.5,368.5)"/><rect x="507" y="406" width="15" height="15" transform="rotate(0,514.5,413.5)"/><rect x="507" y="421" width="15" height="15" transform="rotate(0,514.5,428.5)"/><rect x="507" y="451" width="15" height="15" transform="rotate(0,514.5,458.5)"/><rect x="507" y="466" width="15" height="15" transform="rotate(0,514.5,473.5)"/><rect x="507" y="511" width="15" height="15" transform="rotate(0,514.5,518.5)"/><rect x="507" y="526" width="15" height="15" transform="rotate(0,514.5,533.5)"/><rect x="507" y="541" width="15" height="15" transform="rotate(0,514.5,548.5)"/><rect x="507" y="571" width="15" height="15" transform="rotate(0,514.5,578.5)"/><rect x="522" y="166" width="15" height="15" transform="rotate(0,529.5,173.5)"/><rect x="522" y="181" width="15" height="15" transform="rotate(0,529.5,188.5)"/><rect x="522" y="211" width="15" height="15" transform="rotate(0,529.5,218.5)"/><rect x="522" y="226" width="15" height="15" transform="rotate(0,529.5,233.5)"/><rect x="522" y="241" width="15" height="15" transform="rotate(0,529.5,248.5)"/><rect x="522" y="256" width="15" height="15" transform="rotate(0,529.5,263.5)"/><rect x="522" y="331" width="15" height="15" transform="rotate(0,529.5,338.5)"/><rect x="522" y="376" width="15" height="15" transform="rotate(0,529.5,383.5)"/><rect x="522" y="436" width="15" height="15" transform="rotate(0,529.5,443.5)"/><rect x="522" y="451" width="15" height="15" transform="rotate(0,529.5,458.5)"/><rect x="522" y="496" width="15" height="15" transform="rotate(0,529.5,503.5)"/><rect x="522" y="586" width="15" height="15" transform="rotate(0,529.5,593.5)"/><rect x="522" y="616" width="15" height="15" transform="rotate(0,529.5,623.5)"/><rect x="537" y="166" width="15" height="15" transform="rotate(0,544.5,173.5)"/><rect x="537" y="196" width="15" height="15" transform="rotate(0,544.5,203.5)"/><rect x="537" y="241" width="15" height="15" transform="rotate(0,544.5,248.5)"/><rect x="537" y="301" width="15" height="15" transform="rotate(0,544.5,308.5)"/><rect x="537" y="316" width="15" height="15" transform="rotate(0,544.5,323.5)"/><rect x="537" y="346" width="15" height="15" transform="rotate(0,544.5,353.5)"/><rect x="537" y="391" width="15" height="15" transform="rotate(0,544.5,398.5)"/><rect x="537" y="406" width="15" height="15" transform="rotate(0,544.5,413.5)"/><rect x="537" y="436" width="15" height="15" transform="rotate(0,544.5,443.5)"/><rect x="537" y="466" width="15" height="15" transform="rotate(0,544.5,473.5)"/><rect x="537" y="481" width="15" height="15" transform="rotate(0,544.5,488.5)"/><rect x="537" y="496" width="15" height="15" transform="rotate(0,544.5,503.5)"/><rect x="537" y="511" width="15" height="15" transform="rotate(0,544.5,518.5)"/><rect x="537" y="526" width="15" height="15" transform="rotate(0,544.5,533.5)"/><rect x="537" y="541" width="15" height="15" transform="rotate(0,544.5,548.5)"/><rect x="537" y="571" width="15" height="15" transform="rotate(0,544.5,578.5)"/><rect x="537" y="601" width="15" height="15" transform="rotate(0,544.5,608.5)"/><rect x="537" y="616" width="15" height="15" transform="rotate(0,544.5,623.5)"/><rect x="552" y="211" width="15" height="15" transform="rotate(0,559.5,218.5)"/><rect x="552" y="226" width="15" height="15" transform="rotate(0,559.5,233.5)"/><rect x="552" y="256" width="15" height="15" transform="rotate(0,559.5,263.5)"/><rect x="552" y="271" width="15" height="15" transform="rotate(0,559.5,278.5)"/><rect x="552" y="316" width="15" height="15" transform="rotate(0,559.5,323.5)"/><rect x="552" y="331" width="15" height="15" transform="rotate(0,559.5,338.5)"/><rect x="552" y="406" width="15" height="15" transform="rotate(0,559.5,413.5)"/><rect x="552" y="436" width="15" height="15" transform="rotate(0,559.5,443.5)"/><rect x="552" y="496" width="15" height="15" transform="rotate(0,559.5,503.5)"/><rect x="552" y="526" width="15" height="15" transform="rotate(0,559.5,533.5)"/><rect x="552" y="586" width="15" height="15" transform="rotate(0,559.5,593.5)"/><rect x="552" y="601" width="15" height="15" transform="rotate(0,559.5,608.5)"/><rect x="552" y="631" width="15" height="15" transform="rotate(0,559.5,638.5)"/><rect x="552" y="646" width="15" height="15" transform="rotate(0,559.5,653.5)"/><rect x="567" y="166" width="15" height="15" transform="rotate(0,574.5,173.5)"/><rect x="567" y="181" width="15" height="15" transform="rotate(0,574.5,188.5)"/><rect x="567" y="211" width="15" height="15" transform="rotate(0,574.5,218.5)"/><rect x="567" y="271" width="15" height="15" transform="rotate(0,574.5,278.5)"/><rect x="567" y="286" width="15" height="15" transform="rotate(0,574.5,293.5)"/><rect x="567" y="316" width="15" height="15" transform="rotate(0,574.5,323.5)"/><rect x="567" y="331" width="15" height="15" transform="rotate(0,574.5,338.5)"/><rect x="567" y="346" width="15" height="15" transform="rotate(0,574.5,353.5)"/><rect x="567" y="361" width="15" height="15" transform="rotate(0,574.5,368.5)"/><rect x="567" y="406" width="15" height="15" transform="rotate(0,574.5,413.5)"/><rect x="567" y="436" width="15" height="15" transform="rotate(0,574.5,443.5)"/><rect x="567" y="451" width="15" height="15" transform="rotate(0,574.5,458.5)"/><rect x="567" y="466" width="15" height="15" transform="rotate(0,574.5,473.5)"/><rect x="567" y="541" width="15" height="15" transform="rotate(0,574.5,548.5)"/><rect x="567" y="616" width="15" height="15" transform="rotate(0,574.5,623.5)"/><rect x="582" y="166" width="15" height="15" transform="rotate(0,589.5,173.5)"/><rect x="582" y="211" width="15" height="15" transform="rotate(0,589.5,218.5)"/><rect x="582" y="226" width="15" height="15" transform="rotate(0,589.5,233.5)"/><rect x="582" y="256" width="15" height="15" transform="rotate(0,589.5,263.5)"/><rect x="582" y="301" width="15" height="15" transform="rotate(0,589.5,308.5)"/><rect x="582" y="316" width="15" height="15" transform="rotate(0,589.5,323.5)"/><rect x="582" y="361" width="15" height="15" transform="rotate(0,589.5,368.5)"/><rect x="582" y="391" width="15" height="15" transform="rotate(0,589.5,398.5)"/><rect x="582" y="406" width="15" height="15" transform="rotate(0,589.5,413.5)"/><rect x="582" y="436" width="15" height="15" transform="rotate(0,589.5,443.5)"/><rect x="582" y="466" width="15" height="15" transform="rotate(0,589.5,473.5)"/><rect x="582" y="481" width="15" height="15" transform="rotate(0,589.5,488.5)"/><rect x="582" y="511" width="15" height="15" transform="rotate(0,589.5,518.5)"/><rect x="582" y="526" width="15" height="15" transform="rotate(0,589.5,533.5)"/><rect x="582" y="571" width="15" height="15" transform="rotate(0,589.5,578.5)"/><rect x="582" y="586" width="15" height="15" transform="rotate(0,589.5,593.5)"/><rect x="582" y="631" width="15" height="15" transform="rotate(0,589.5,638.5)"/><rect x="597" y="166" width="15" height="15" transform="rotate(0,604.5,173.5)"/><rect x="597" y="196" width="15" height="15" transform="rotate(0,604.5,203.5)"/><rect x="597" y="226" width="15" height="15" transform="rotate(0,604.5,233.5)"/><rect x="597" y="331" width="15" height="15" transform="rotate(0,604.5,338.5)"/><rect x="597" y="376" width="15" height="15" transform="rotate(0,604.5,383.5)"/><rect x="597" y="391" width="15" height="15" transform="rotate(0,604.5,398.5)"/><rect x="597" y="406" width="15" height="15" transform="rotate(0,604.5,413.5)"/><rect x="597" y="421" width="15" height="15" transform="rotate(0,604.5,428.5)"/><rect x="597" y="436" width="15" height="15" transform="rotate(0,604.5,443.5)"/><rect x="597" y="451" width="15" height="15" transform="rotate(0,604.5,458.5)"/><rect x="597" y="466" width="15" height="15" transform="rotate(0,604.5,473.5)"/><rect x="597" y="481" width="15" height="15" transform="rotate(0,604.5,488.5)"/><rect x="597" y="496" width="15" height="15" transform="rotate(0,604.5,503.5)"/><rect x="597" y="511" width="15" height="15" transform="rotate(0,604.5,518.5)"/><rect x="597" y="601" width="15" height="15" transform="rotate(0,604.5,608.5)"/><rect x="597" y="616" width="15" height="15" transform="rotate(0,604.5,623.5)"/><rect x="612" y="166" width="15" height="15" transform="rotate(0,619.5,173.5)"/><rect x="612" y="196" width="15" height="15" transform="rotate(0,619.5,203.5)"/><rect x="612" y="226" width="15" height="15" transform="rotate(0,619.5,233.5)"/><rect x="612" y="241" width="15" height="15" transform="rotate(0,619.5,248.5)"/><rect x="612" y="256" width="15" height="15" transform="rotate(0,619.5,263.5)"/><rect x="612" y="271" width="15" height="15" transform="rotate(0,619.5,278.5)"/><rect x="612" y="286" width="15" height="15" transform="rotate(0,619.5,293.5)"/><rect x="612" y="301" width="15" height="15" transform="rotate(0,619.5,308.5)"/><rect x="612" y="316" width="15" height="15" transform="rotate(0,619.5,323.5)"/><rect x="612" y="331" width="15" height="15" transform="rotate(0,619.5,338.5)"/><rect x="612" y="346" width="15" height="15" transform="rotate(0,619.5,353.5)"/><rect x="612" y="361" width="15" height="15" transform="rotate(0,619.5,368.5)"/><rect x="612" y="376" width="15" height="15" transform="rotate(0,619.5,383.5)"/><rect x="612" y="421" width="15" height="15" transform="rotate(0,619.5,428.5)"/><rect x="612" y="451" width="15" height="15" transform="rotate(0,619.5,458.5)"/><rect x="612" y="496" width="15" height="15" transform="rotate(0,619.5,503.5)"/><rect x="612" y="511" width="15" height="15" transform="rotate(0,619.5,518.5)"/><rect x="612" y="526" width="15" height="15" transform="rotate(0,619.5,533.5)"/><rect x="612" y="541" width="15" height="15" transform="rotate(0,619.5,548.5)"/><rect x="612" y="556" width="15" height="15" transform="rotate(0,619.5,563.5)"/><rect x="612" y="571" width="15" height="15" transform="rotate(0,619.5,578.5)"/><rect x="612" y="586" width="15" height="15" transform="rotate(0,619.5,593.5)"/><rect x="612" y="646" width="15" height="15" transform="rotate(0,619.5,653.5)"/><rect x="627" y="286" width="15" height="15" transform="rotate(0,634.5,293.5)"/><rect x="627" y="301" width="15" height="15" transform="rotate(0,634.5,308.5)"/><rect x="627" y="316" width="15" height="15" transform="rotate(0,634.5,323.5)"/><rect x="627" y="376" width="15" height="15" transform="rotate(0,634.5,383.5)"/><rect x="627" y="406" width="15" height="15" transform="rotate(0,634.5,413.5)"/><rect x="627" y="436" width="15" height="15" transform="rotate(0,634.5,443.5)"/><rect x="627" y="451" width="15" height="15" transform="rotate(0,634.5,458.5)"/><rect x="627" y="481" width="15" height="15" transform="rotate(0,634.5,488.5)"/><rect x="627" y="511" width="15" height="15" transform="rotate(0,634.5,518.5)"/><rect x="627" y="526" width="15" height="15" transform="rotate(0,634.5,533.5)"/><rect x="627" y="586" width="15" height="15" transform="rotate(0,634.5,593.5)"/><rect x="627" y="601" width="15" height="15" transform="rotate(0,634.5,608.5)"/><rect x="627" y="616" width="15" height="15" transform="rotate(0,634.5,623.5)"/><rect x="627" y="631" width="15" height="15" transform="rotate(0,634.5,638.5)"/><rect x="627" y="646" width="15" height="15" transform="rotate(0,634.5,653.5)"/><rect x="642" y="301" width="15" height="15" transform="rotate(0,649.5,308.5)"/><rect x="642" y="316" width="15" height="15" transform="rotate(0,649.5,323.5)"/><rect x="642" y="331" width="15" height="15" transform="rotate(0,649.5,338.5)"/><rect x="642" y="376" width="15" height="15" transform="rotate(0,649.5,383.5)"/><rect x="642" y="391" width="15" height="15" transform="rotate(0,649.5,398.5)"/><rect x="642" y="406" width="15" height="15" transform="rotate(0,649.5,413.5)"/><rect x="642" y="436" width="15" height="15" transform="rotate(0,649.5,443.5)"/><rect x="642" y="481" width="15" height="15" transform="rotate(0,649.5,488.5)"/><rect x="642" y="511" width="15" height="15" transform="rotate(0,649.5,518.5)"/><rect x="642" y="526" width="15" height="15" transform="rotate(0,649.5,533.5)"/><rect x="642" y="556" width="15" height="15" transform="rotate(0,649.5,563.5)"/><rect x="642" y="586" width="15" height="15" transform="rotate(0,649.5,593.5)"/><rect x="642" y="601" width="15" height="15" transform="rotate(0,649.5,608.5)"/><rect x="642" y="616" width="15" height="15" transform="rotate(0,649.5,623.5)"/><rect x="642" y="631" width="15" height="15" transform="rotate(0,649.5,638.5)"/><rect x="657" y="316" width="15" height="15" transform="rotate(0,664.5,323.5)"/><rect x="657" y="331" width="15" height="15" transform="rotate(0,664.5,338.5)"/><rect x="657" y="361" width="15" height="15" transform="rotate(0,664.5,368.5)"/><rect x="657" y="376" width="15" height="15" transform="rotate(0,664.5,383.5)"/><rect x="657" y="391" width="15" height="15" transform="rotate(0,664.5,398.5)"/><rect x="657" y="406" width="15" height="15" transform="rotate(0,664.5,413.5)"/><rect x="657" y="421" width="15" height="15" transform="rotate(0,664.5,428.5)"/><rect x="657" y="436" width="15" height="15" transform="rotate(0,664.5,443.5)"/><rect x="657" y="451" width="15" height="15" transform="rotate(0,664.5,458.5)"/><rect x="657" y="481" width="15" height="15" transform="rotate(0,664.5,488.5)"/><rect x="657" y="496" width="15" height="15" transform="rotate(0,664.5,503.5)"/><rect x="657" y="526" width="15" height="15" transform="rotate(0,664.5,533.5)"/><rect x="657" y="586" width="15" height="15" transform="rotate(0,664.5,593.5)"/><rect x="657" y="601" width="15" height="15" transform="rotate(0,664.5,608.5)"/><rect x="657" y="616" width="15" height="15" transform="rotate(0,664.5,623.5)"/><rect x="657" y="631" width="15" height="15" transform="rotate(0,664.5,638.5)"/><rect x="657" y="646" width="15" height="15" transform="rotate(0,664.5,653.5)"/><rect x="672" y="286" width="15" height="15" transform="rotate(0,679.5,293.5)"/><rect x="672" y="331" width="15" height="15" transform="rotate(0,679.5,338.5)"/><rect x="672" y="391" width="15" height="15" transform="rotate(0,679.5,398.5)"/><rect x="672" y="436" width="15" height="15" transform="rotate(0,679.5,443.5)"/><rect x="672" y="466" width="15" height="15" transform="rotate(0,679.5,473.5)"/><rect x="672" y="481" width="15" height="15" transform="rotate(0,679.5,488.5)"/><rect x="672" y="526" width="15" height="15" transform="rotate(0,679.5,533.5)"/><rect x="672" y="541" width="15" height="15" transform="rotate(0,679.5,548.5)"/><rect x="672" y="556" width="15" height="15" transform="rotate(0,679.5,563.5)"/><rect x="672" y="571" width="15" height="15" transform="rotate(0,679.5,578.5)"/><rect x="672" y="586" width="15" height="15" transform="rotate(0,679.5,593.5)"/><rect x="672" y="616" width="15" height="15" transform="rotate(0,679.5,623.5)"/><rect x="672" y="631" width="15" height="15" transform="rotate(0,679.5,638.5)"/><rect x="672" y="646" width="15" height="15" transform="rotate(0,679.5,653.5)"/><rect x="687" y="286" width="15" height="15" transform="rotate(0,694.5,293.5)"/><rect x="687" y="301" width="15" height="15" transform="rotate(0,694.5,308.5)"/><rect x="687" y="331" width="15" height="15" transform="rotate(0,694.5,338.5)"/><rect x="687" y="376" width="15" height="15" transform="rotate(0,694.5,383.5)"/><rect x="687" y="421" width="15" height="15" transform="rotate(0,694.5,428.5)"/><rect x="687" y="436" width="15" height="15" transform="rotate(0,694.5,443.5)"/><rect x="687" y="496" width="15" height="15" transform="rotate(0,694.5,503.5)"/><rect x="687" y="541" width="15" height="15" transform="rotate(0,694.5,548.5)"/><rect x="687" y="586" width="15" height="15" transform="rotate(0,694.5,593.5)"/><rect x="687" y="616" width="15" height="15" transform="rotate(0,694.5,623.5)"/><rect x="687" y="631" width="15" height="15" transform="rotate(0,694.5,638.5)"/><rect x="702" y="286" width="15" height="15" transform="rotate(0,709.5,293.5)"/><rect x="702" y="391" width="15" height="15" transform="rotate(0,709.5,398.5)"/><rect x="702" y="436" width="15" height="15" transform="rotate(0,709.5,443.5)"/><rect x="702" y="451" width="15" height="15" transform="rotate(0,709.5,458.5)"/><rect x="702" y="466" width="15" height="15" transform="rotate(0,709.5,473.5)"/><rect x="702" y="496" width="15" height="15" transform="rotate(0,709.5,503.5)"/><rect x="702" y="511" width="15" height="15" transform="rotate(0,709.5,518.5)"/><rect x="702" y="526" width="15" height="15" transform="rotate(0,709.5,533.5)"/><rect x="702" y="541" width="15" height="15" transform="rotate(0,709.5,548.5)"/><rect x="702" y="556" width="15" height="15" transform="rotate(0,709.5,563.5)"/><rect x="702" y="601" width="15" height="15" transform="rotate(0,709.5,608.5)"/><rect x="702" y="616" width="15" height="15" transform="rotate(0,709.5,623.5)"/><rect x="717" y="301" width="15" height="15" transform="rotate(0,724.5,308.5)"/><rect x="717" y="316" width="15" height="15" transform="rotate(0,724.5,323.5)"/><rect x="717" y="331" width="15" height="15" transform="rotate(0,724.5,338.5)"/><rect x="717" y="346" width="15" height="15" transform="rotate(0,724.5,353.5)"/><rect x="717" y="361" width="15" height="15" transform="rotate(0,724.5,368.5)"/><rect x="717" y="376" width="15" height="15" transform="rotate(0,724.5,383.5)"/><rect x="717" y="391" width="15" height="15" transform="rotate(0,724.5,398.5)"/><rect x="717" y="406" width="15" height="15" transform="rotate(0,724.5,413.5)"/><rect x="717" y="421" width="15" height="15" transform="rotate(0,724.5,428.5)"/><rect x="717" y="466" width="15" height="15" transform="rotate(0,724.5,473.5)"/><rect x="717" y="541" width="15" height="15" transform="rotate(0,724.5,548.5)"/><rect x="717" y="556" width="15" height="15" transform="rotate(0,724.5,563.5)"/><rect x="717" y="571" width="15" height="15" transform="rotate(0,724.5,578.5)"/><rect x="717" y="616" width="15" height="15" transform="rotate(0,724.5,623.5)"/><rect x="732" y="301" width="15" height="15" transform="rotate(0,739.5,308.5)"/><rect x="732" y="316" width="15" height="15" transform="rotate(0,739.5,323.5)"/><rect x="732" y="346" width="15" height="15" transform="rotate(0,739.5,353.5)"/><rect x="732" y="361" width="15" height="15" transform="rotate(0,739.5,368.5)"/><rect x="732" y="391" width="15" height="15" transform="rotate(0,739.5,398.5)"/><rect x="732" y="481" width="15" height="15" transform="rotate(0,739.5,488.5)"/><rect x="732" y="496" width="15" height="15" transform="rotate(0,739.5,503.5)"/><rect x="732" y="511" width="15" height="15" transform="rotate(0,739.5,518.5)"/><rect x="732" y="526" width="15" height="15" transform="rotate(0,739.5,533.5)"/><rect x="732" y="556" width="15" height="15" transform="rotate(0,739.5,563.5)"/><rect x="732" y="601" width="15" height="15" transform="rotate(0,739.5,608.5)"/><rect x="732" y="616" width="15" height="15" transform="rotate(0,739.5,623.5)"/><rect x="732" y="631" width="15" height="15" transform="rotate(0,739.5,638.5)"/></clipPath><clipPath id="clip-path-corners-square-color-0-0"><rect x="252" y="166" width="15" height="15" transform="rotate(0,259.5,173.5)"/><rect x="252" y="181" width="15" height="15" transform="rotate(0,259.5,188.5)"/><rect x="252" y="196" width="15" height="15" transform="rotate(0,259.5,203.5)"/><rect x="252" y="211" width="15" height="15" transform="rotate(0,259.5,218.5)"/><rect x="252" y="226" width="15" height="15" transform="rotate(0,259.5,233.5)"/><rect x="252" y="241" width="15" height="15" transform="rotate(0,259.5,248.5)"/><rect x="252" y="256" width="15" height="15" transform="rotate(0,259.5,263.5)"/><rect x="267" y="166" width="15" height="15" transform="rotate(0,274.5,173.5)"/><rect x="267" y="256" width="15" height="15" transform="rotate(0,274.5,263.5)"/><rect x="282" y="166" width="15" height="15" transform="rotate(0,289.5,173.5)"/><rect x="282" y="256" width="15" height="15" transform="rotate(0,289.5,263.5)"/><rect x="297" y="166" width="15" height="15" transform="rotate(0,304.5,173.5)"/><rect x="297" y="256" width="15" height="15" transform="rotate(0,304.5,263.5)"/><rect x="312" y="166" width="15" height="15" transform="rotate(0,319.5,173.5)"/><rect x="312" y="256" width="15" height="15" transform="rotate(0,319.5,263.5)"/><rect x="327" y="166" width="15" height="15" transform="rotate(0,334.5,173.5)"/><rect x="327" y="256" width="15" height="15" transform="rotate(0,334.5,263.5)"/><rect x="342" y="166" width="15" height="15" transform="rotate(0,349.5,173.5)"/><rect x="342" y="181" width="15" height="15" transform="rotate(0,349.5,188.5)"/><rect x="342" y="196" width="15" height="15" transform="rotate(0,349.5,203.5)"/><rect x="342" y="211" width="15" height="15" transform="rotate(0,349.5,218.5)"/><rect x="342" y="226" width="15" height="15" transform="rotate(0,349.5,233.5)"/><rect x="342" y="241" width="15" height="15" transform="rotate(0,349.5,248.5)"/><rect x="342" y="256" width="15" height="15" transform="rotate(0,349.5,263.5)"/></clipPath><clipPath id="clip-path-corners-dot-color-0-0"><rect x="282" y="196" width="15" height="15" transform="rotate(0,289.5,203.5)"/><rect x="282" y="211" width="15" height="15" transform="rotate(0,289.5,218.5)"/><rect x="282" y="226" width="15" height="15" transform="rotate(0,289.5,233.5)"/><rect x="297" y="196" width="15" height="15" transform="rotate(0,304.5,203.5)"/><rect x="297" y="211" width="15" height="15" transform="rotate(0,304.5,218.5)"/><rect x="297" y="226" width="15" height="15" transform="rotate(0,304.5,233.5)"/><rect x="312" y="196" width="15" height="15" transform="rotate(0,319.5,203.5)"/><rect x="312" y="211" width="15" height="15" transform="rotate(0,319.5,218.5)"/><rect x="312" y="226" width="15" height="15" transform="rotate(0,319.5,233.5)"/></clipPath><clipPath id="clip-path-corners-square-color-1-0"><rect x="642" y="166" width="15" height="15" transform="rotate(0,649.5,173.5)"/><rect x="642" y="181" width="15" height="15" transform="rotate(0,649.5,188.5)"/><rect x="642" y="196" width="15" height="15" transform="rotate(0,649.5,203.5)"/><rect x="642" y="211" width="15" height="15" transform="rotate(0,649.5,218.5)"/><rect x="642" y="226" width="15" height="15" transform="rotate(0,649.5,233.5)"/><rect x="642" y="241" width="15" height="15" transform="rotate(0,649.5,248.5)"/><rect x="642" y="256" width="15" height="15" transform="rotate(0,649.5,263.5)"/><rect x="657" y="166" width="15" height="15" transform="rotate(0,664.5,173.5)"/><rect x="657" y="256" width="15" height="15" transform="rotate(0,664.5,263.5)"/><rect x="672" y="166" width="15" height="15" transform="rotate(0,679.5,173.5)"/><rect x="672" y="256" width="15" height="15" transform="rotate(0,679.5,263.5)"/><rect x="687" y="166" width="15" height="15" transform="rotate(0,694.5,173.5)"/><rect x="687" y="256" width="15" height="15" transform="rotate(0,694.5,263.5)"/><rect x="702" y="166" width="15" height="15" transform="rotate(0,709.5,173.5)"/><rect x="702" y="256" width="15" height="15" transform="rotate(0,709.5,263.5)"/><rect x="717" y="166" width="15" height="15" transform="rotate(0,724.5,173.5)"/><rect x="717" y="256" width="15" height="15" transform="rotate(0,724.5,263.5)"/><rect x="732" y="166" width="15" height="15" transform="rotate(0,739.5,173.5)"/><rect x="732" y="181" width="15" height="15" transform="rotate(0,739.5,188.5)"/><rect x="732" y="196" width="15" height="15" transform="rotate(0,739.5,203.5)"/><rect x="732" y="211" width="15" height="15" transform="rotate(0,739.5,218.5)"/><rect x="732" y="226" width="15" height="15" transform="rotate(0,739.5,233.5)"/><rect x="732" y="241" width="15" height="15" transform="rotate(0,739.5,248.5)"/><rect x="732" y="256" width="15" height="15" transform="rotate(0,739.5,263.5)"/></clipPath><clipPath id="clip-path-corners-dot-color-1-0"><rect x="672" y="196" width="15" height="15" transform="rotate(0,679.5,203.5)"/><rect x="672" y="211" width="15" height="15" transform="rotate(0,679.5,218.5)"/><rect x="672" y="226" width="15" height="15" transform="rotate(0,679.5,233.5)"/><rect x="687" y="196" width="15" height="15" transform="rotate(0,694.5,203.5)"/><rect x="687" y="211" width="15" height="15" transform="rotate(0,694.5,218.5)"/><rect x="687" y="226" width="15" height="15" transform="rotate(0,694.5,233.5)"/><rect x="702" y="196" width="15" height="15" transform="rotate(0,709.5,203.5)"/><rect x="702" y="211" width="15" height="15" transform="rotate(0,709.5,218.5)"/><rect x="702" y="226" width="15" height="15" transform="rotate(0,709.5,233.5)"/></clipPath><clipPath id="clip-path-corners-square-color-0-1"><rect x="252" y="556" width="15" height="15" transform="rotate(0,259.5,563.5)"/><rect x="252" y="571" width="15" height="15" transform="rotate(0,259.5,578.5)"/><rect x="252" y="586" width="15" height="15" transform="rotate(0,259.5,593.5)"/><rect x="252" y="601" width="15" height="15" transform="rotate(0,259.5,608.5)"/><rect x="252" y="616" width="15" height="15" transform="rotate(0,259.5,623.5)"/><rect x="252" y="631" width="15" height="15" transform="rotate(0,259.5,638.5)"/><rect x="252" y="646" width="15" height="15" transform="rotate(0,259.5,653.5)"/><rect x="267" y="556" width="15" height="15" transform="rotate(0,274.5,563.5)"/><rect x="267" y="646" width="15" height="15" transform="rotate(0,274.5,653.5)"/><rect x="282" y="556" width="15" height="15" transform="rotate(0,289.5,563.5)"/><rect x="282" y="646" width="15" height="15" transform="rotate(0,289.5,653.5)"/><rect x="297" y="556" width="15" height="15" transform="rotate(0,304.5,563.5)"/><rect x="297" y="646" width="15" height="15" transform="rotate(0,304.5,653.5)"/><rect x="312" y="556" width="15" height="15" transform="rotate(0,319.5,563.5)"/><rect x="312" y="646" width="15" height="15" transform="rotate(0,319.5,653.5)"/><rect x="327" y="556" width="15" height="15" transform="rotate(0,334.5,563.5)"/><rect x="327" y="646" width="15" height="15" transform="rotate(0,334.5,653.5)"/><rect x="342" y="556" width="15" height="15" transform="rotate(0,349.5,563.5)"/><rect x="342" y="571" width="15" height="15" transform="rotate(0,349.5,578.5)"/><rect x="342" y="586" width="15" height="15" transform="rotate(0,349.5,593.5)"/><rect x="342" y="601" width="15" height="15" transform="rotate(0,349.5,608.5)"/><rect x="342" y="616" width="15" height="15" transform="rotate(0,349.5,623.5)"/><rect x="342" y="631" width="15" height="15" transform="rotate(0,349.5,638.5)"/><rect x="342" y="646" width="15" height="15" transform="rotate(0,349.5,653.5)"/></clipPath><clipPath id="clip-path-corners-dot-color-0-1"><rect x="282" y="586" width="15" height="15" transform="rotate(0,289.5,593.5)"/><rect x="282" y="601" width="15" height="15" transform="rotate(0,289.5,608.5)"/><rect x="282" y="616" width="15" height="15" transform="rotate(0,289.5,623.5)"/><rect x="297" y="586" width="15" height="15" transform="rotate(0,304.5,593.5)"/><rect x="297" y="601" width="15" height="15" transform="rotate(0,304.5,608.5)"/><rect x="297" y="616" width="15" height="15" transform="rotate(0,304.5,623.5)"/><rect x="312" y="586" width="15" height="15" transform="rotate(0,319.5,593.5)"/><rect x="312" y="601" width="15" height="15" transform="rotate(0,319.5,608.5)"/><rect x="312" y="616" width="15" height="15" transform="rotate(0,319.5,623.5)"/></clipPath></defs><rect x="0" y="0" height="990" width="1000" clip-path="url('#clip-path-frame-background-color')" fill="url('#frame-background-color')"/><defs><radialGradient id="frame-gradient">
			<stop offset="0%" stop-color="#7b7474"/>
			<stop offset="100%" stop-color="#000000"/></radialGradient><linearGradient id="bkg-frame-gradient" x1="0%" y1="50%" x2="100%" y2="50%">
			<stop offset="0%" stop-color="#a9a2a2"/>
			<stop offset="100%" stop-color="#ffffff"/></linearGradient></defs><path fill="url(#frame-gradient)" d="M805.5,96.15c5.51,0,10,4.49,10,10v621h-631v-621c0-5.51,4.49-10,10-10H805.5 M805.5,66.15h-611c-22.09,0-40,17.91-40,40 v651h691v-651C845.5,84.06,827.59,66.15,805.5,66.15L805.5,66.15z"/>
			<polygon fill="#d2d0d0" points="154.5,789.86 0,789.86 58.69,691.61 0,593.36 154.5,593.36"/>
			<path fill="url(#bkg-frame-gradient)" d="M154.5,736.04c0-37.88,0-79.17,0-103.02c0,0-53.2,20.93-53.2,48.5C101.3,736.04,154.5,736.04,154.5,736.04z"/>
			<polygon fill="#d2d0d0" points="845.5,789.86 1000,789.86 941.31,691.61 1000,593.36 845.5,593.36"/>
			<path fill="url(#bkg-frame-gradient)" d="M845.5,736.04c0-37.88,0-79.17,0-103.02c0,0,53.2,20.93,53.2,48.5C898.7,736.04,845.5,736.04,845.5,736.04z"/>
			<path fill="url(#frame-gradient)" d="M101.3,681.69v-3.03C101.27,679.69,101.27,680.7,101.3,681.69z"/>
			<path fill="url(#frame-gradient)" d="M101.3,678.61v0.05C101.3,678.64,101.3,678.63,101.3,678.61L101.3,678.61z"/>
			<path fill="url(#frame-gradient)" d="M898.7,678.66v3.03C898.73,680.7,898.73,679.69,898.7,678.66z"/>
			<path fill="url(#frame-gradient)" d="M898.7,806.14V681.69c-1.64,53.28-100.07,45.66-154.26,45.66H516.23h-32.46H255.56c-54.18,0-152.62,7.62-154.26-45.66 l0,124.44c-0.01,0.34-0.03,0.68-0.03,1.02v66.69c0,27.61,22.39,50,50,50h104.28h228.21h32.46h228.21h104.28 c27.61,0,50-22.39,50-50v-66.69C898.72,806.81,898.7,806.48,898.7,806.14z"/>
			<text fill="#ffffff" font-size="90" x="50%" y="831" dominant-baseline="middle" text-anchor="middle" font-family="sans-serif" font-weight="600">GitHub</text><rect x="215" y="128" height="571" width="570" clip-path="url('#clip-path-background-color')" fill="#ffffff"/><rect x="252" y="166" height="495" width="495" clip-path="url('#clip-path-dot-color')" fill="#000000"/><rect x="252" y="166" height="105" width="105" clip-path="url('#clip-path-corners-square-color-0-0')" fill="#000000"/><rect x="282" y="196" height="45" width="45" clip-path="url('#clip-path-corners-dot-color-0-0')" fill="#000000"/><rect x="642" y="166" height="105" width="105" clip-path="url('#clip-path-corners-square-color-1-0')" fill="#000000"/><rect x="672" y="196" height="45" width="45" clip-path="url('#clip-path-corners-dot-color-1-0')" fill="#000000"/><rect x="252" y="556" height="105" width="105" clip-path="url('#clip-path-corners-square-color-0-1')" fill="#000000"/><rect x="282" y="586" height="45" width="45" clip-path="url('#clip-path-corners-dot-color-0-1')" fill="#000000"/></svg>